<?xml version="1.0" standalone="no"?><!DOCTYPE svg PUBLIC "-//W3C//DTD SVG 1.1//EN" "http://www.w3.org/Graphics/SVG/1.1/DTD/svg11.dtd"><svg t="1587439043685" class="icon" viewBox="0 0 1028 1024" version="1.1" xmlns="http://www.w3.org/2000/svg" p-id="28126" xmlns:xlink="http://www.w3.org/1999/xlink" width="200.78125" height="200"><defs><style type="text/css"></style></defs><path d="M264.2249 150.618474h81.220883c62.200803 0 112.578313 50.37751 112.578313 112.578313v195.341366H264.2249c-62.200803 0-112.578313-50.37751-112.578314-112.578314v-82.248996c0-62.200803 50.37751-112.578313 112.578314-112.578313v-0.514056z" fill="#d81e06" p-id="28127"></path><path d="M485.783133 485.269076H264.2249C186.60241 485.269076 123.373494 422.554217 123.373494 344.931727V263.710843C123.373494 186.088353 186.60241 123.373494 263.710843 123.373494h81.220884c77.62249 0 140.337349 63.228916 140.337349 140.337349v221.558233zM264.2249 177.863454c-47.293173 0-85.84739 38.554217-85.84739 85.847389v81.220884c0 47.293173 38.554217 85.84739 85.84739 85.847389h167.068273V263.710843c0-47.293173-38.554217-85.84739-85.84739-85.847389H264.2249z m419.469879-27.24498h80.706827c62.200803 0 112.578313 50.37751 112.578314 112.578313v82.248996c0 62.200803-50.37751 112.578313-112.578314 112.578313h-194.313253V263.710843c-0.514056-62.200803 49.349398-112.578313 111.550201-113.092369h2.056225z" fill="#d81e06" p-id="28128"></path><path d="M764.401606 485.269076h-221.558233V263.710843c0-77.62249 63.228916-140.337349 140.33735-140.337349h80.706827c77.62249 0 140.337349 62.714859 140.33735 140.337349v81.220884c0.514056 77.62249-62.200803 140.337349-139.823294 140.337349z m-167.068273-54.48996h167.068273c47.293173 0 85.84739-38.554217 86.361446-85.847389V263.710843c0-47.293173-38.554217-85.84739-86.361446-85.847389H683.694779c-47.293173 0-85.84739 38.554217-85.847389 85.847389l-0.514057 167.068273z m167.068273 441.574298H683.694779c-62.200803 0-112.578313-50.37751-112.578313-112.578314v-193.799196h193.28514c62.200803 0 112.578313 50.37751 112.578314 112.578313v81.220883c0 62.200803-50.37751 112.578313-112.578314 112.578314z" fill="#d81e06" p-id="28129"></path><path d="M764.401606 901.140562H683.694779c-77.62249 0-140.337349-63.228916-140.337349-140.851405v-221.044177h221.558233c77.62249 0 140.337349 62.714859 140.337349 140.337349v80.706828c-0.514056 77.62249-63.228916 140.337349-140.851406 140.851405z m-167.068273-307.919678v166.554216c0 47.293173 38.554217 85.84739 85.84739 85.84739h81.220883c47.293173 0 85.84739-38.040161 86.361446-85.333333V679.068273c0-47.293173-38.554217-85.84739-85.847389-85.847389h-167.58233z m-333.108433-26.730924h194.313253v193.799197c0 62.200803-50.37751 112.578313-112.578314 112.578313h-82.248996c-62.200803 0-112.578313-50.37751-112.578313-112.578313v-80.706828c-0.514056-62.200803 49.349398-112.578313 111.550201-113.092369h1.542169z" fill="#d81e06" p-id="28130"></path><path d="M345.445783 901.140562H264.2249C186.60241 900.626506 123.373494 837.911647 123.373494 760.289157v-80.706828c0-77.62249 63.228916-140.337349 140.337349-140.337349h222.07229v221.044177c0 77.62249-62.714859 140.337349-140.33735 140.851405z m-81.220883-307.919678c-47.293173 0-85.84739 38.554217-85.84739 85.847389v80.706827c0 47.293173 38.554217 85.84739 85.84739 85.84739h81.220883c47.293173 0 85.84739-38.554217 85.84739-85.84739v-166.554216H264.2249z" fill="#d81e06" p-id="28131"></path></svg>