<?xml version="1.0" standalone="no"?><!DOCTYPE svg PUBLIC "-//W3C//DTD SVG 1.1//EN" "http://www.w3.org/Graphics/SVG/1.1/DTD/svg11.dtd"><svg t="1587438832070" class="icon" viewBox="0 0 1024 1024" version="1.1" xmlns="http://www.w3.org/2000/svg" p-id="23302" xmlns:xlink="http://www.w3.org/1999/xlink" width="200" height="200"><defs><style type="text/css"></style></defs><path d="M508.5 463.31c-106.19 0-192.58-86.39-192.58-192.58S402.31 78.15 508.5 78.15c106.19 0 192.58 86.39 192.58 192.58s-86.4 192.58-192.58 192.58z m0-345.16c-84.13 0-152.58 68.45-152.58 152.58 0 84.13 68.45 152.58 152.58 152.58s152.58-68.45 152.58-152.58c-0.01-84.13-68.45-152.58-152.58-152.58z" fill="#4E4E4E" p-id="23303"></path><path d="M832.88 799.78c-1.03 0-2.07-0.08-3.11-0.24-10.91-1.71-18.38-11.93-16.67-22.85 0.37-2.33 0.55-4.74 0.55-7.16 0-77.76-31.63-150.92-89.08-205.99-57.67-55.29-134.41-85.74-216.07-85.74s-158.4 30.45-216.07 85.74c-57.44 55.07-89.08 128.22-89.08 205.99 0 2.42 0.19 4.83 0.55 7.16 1.71 10.91-5.76 21.14-16.67 22.85-10.92 1.7-21.14-5.76-22.85-16.67-0.68-4.37-1.03-8.86-1.03-13.33 0-44.88 9.17-88.42 27.25-129.41 17.44-39.53 42.38-75 74.14-105.45 65.15-62.47 151.72-96.87 243.76-96.87s178.6 34.4 243.76 96.87c31.76 30.45 56.7 65.93 74.14 105.45 18.08 40.99 27.25 84.53 27.25 129.41 0 4.48-0.35 8.96-1.03 13.33-1.55 9.87-10.06 16.91-19.74 16.91z" fill="#4E4E4E" p-id="23304"></path></svg>