<?xml version="1.0" standalone="no"?><!DOCTYPE svg PUBLIC "-//W3C//DTD SVG 1.1//EN" "http://www.w3.org/Graphics/SVG/1.1/DTD/svg11.dtd"><svg t="1587438930548" class="icon" viewBox="0 0 1024 1024" version="1.1" xmlns="http://www.w3.org/2000/svg" p-id="24552" xmlns:xlink="http://www.w3.org/1999/xlink" width="200" height="200"><defs><style type="text/css"></style></defs><path d="M825.989565 713.305043H361.071304c-13.04487 0-25.488696-11.798261-27.158261-25.711304L285.161739 344.375652l-27.536696-159.076174C252.616348 144.294957 216.553739 112.194783 175.504696 112.194783H139.041391c-15.003826 0-27.225043 12.243478-27.225043 27.247304s12.221217 27.225043 27.225043 27.225043h36.463305c13.534609 0 26.468174 12.154435 28.249043 26.534957l27.603478 159.632696 48.550957 341.837913c4.964174 40.96 40.603826 73.060174 81.16313 73.060174h464.918261c15.003826 0 27.225043-12.221217 27.225044-27.225044 0-14.981565-12.221217-27.202783-27.225044-27.202783z" fill="#d81e06" p-id="24553"></path><path d="M890.523826 223.209739a73.216 73.216 0 0 0-55.540869-25.154782H339.411478c-15.026087 0-27.225043 12.221217-27.225043 27.225043s12.198957 27.247304 27.225043 27.247304h495.571479c5.854609 0 10.818783 2.270609 14.781217 6.745044 5.87687 6.633739 8.859826 17.541565 7.635478 27.781565L812.29913 545.101913c-1.691826 13.734957-14.803478 25.088-29.250782 25.154783l-388.185044 28.627478a26.86887 26.86887 0 0 0-18.587826 9.349565 26.935652 26.935652 0 0 0-6.544695 19.745391 27.314087 27.314087 0 0 0 29.139478 25.177044l386.159304-28.538435c40.626087 0 76.198957-31.432348 81.096348-71.546435l45.122783-258.025739c3.272348-27.069217-4.296348-53.292522-20.72487-71.835826zM368.484174 910.848a55.919304 55.919304 0 0 0 55.852522-55.830261c0-30.786783-25.065739-55.874783-55.852522-55.874782s-55.830261 25.088-55.830261 55.874782a55.919304 55.919304 0 0 0 55.830261 55.830261zM769.224348 910.848a55.919304 55.919304 0 0 0 55.830261-55.830261 55.919304 55.919304 0 0 0-55.830261-55.874782 55.919304 55.919304 0 0 0-55.874783 55.874782 55.919304 55.919304 0 0 0 55.874783 55.830261z" fill="#d81e06" p-id="24554"></path></svg>